# Blender v3.2.1 OBJ File: ''
# www.blender.org
mtllib walls-window.mtl
g walls
v -202.859604 73.010078 123.337814
v -202.859604 -230.278412 123.337761
v -202.859604 -230.278305 -0.000038
v -202.859604 73.010101 0.000012
v 176.196304 -230.278320 123.337761
v 176.196304 -230.278305 -0.000038
v 176.196304 73.010078 123.337814
v 176.196304 73.010101 0.000012
v 58.711102 73.010078 145.000015
v 58.711102 73.010078 123.337814
v 121.944603 73.010078 123.337814
v 121.944603 73.010078 145.000015
v -202.859604 73.010078 145.000015
v 121.944603 73.010101 0.000012
v -202.859604 -230.278336 144.999969
v 176.196304 -230.278336 144.999969
v 176.196304 73.010078 145.000015
v 58.711102 73.010101 0.000012
v 121.944603 74.662903 0.000012
v 58.711102 74.662903 0.000012
v 121.944603 74.662880 123.337814
v 58.711102 74.662880 123.337814
v 176.678101 77.054779 123.337814
v 176.677994 395.121277 123.337860
v 176.677994 395.121307 0.000064
v 176.678101 77.054802 0.000013
v -202.377899 395.121277 123.337860
v -202.377899 395.121307 0.000064
v -202.377808 77.054680 123.337814
v -202.377808 77.054703 0.000013
v 121.944603 77.054680 144.999985
v 121.944603 77.054680 123.337814
v 58.711102 77.054680 123.337814
v 58.711102 77.054680 144.999985
v 176.678101 77.054779 144.999985
v 58.711102 77.054703 0.000013
v 176.677994 395.121277 145.000031
v -202.377899 395.121277 145.000031
v -202.377808 77.054680 144.999985
v 121.944603 77.054703 0.000013
v 58.711102 -230.278427 144.999969
v -202.859604 -230.278427 144.999969
v 121.944603 -230.278336 144.999969
v 58.711102 -230.278336 144.999969
v 176.196304 -230.278320 144.999969
v 121.944603 -230.278320 144.999969
v 58.711102 395.121307 145.000031
v 121.944603 395.121307 145.000031
v 121.944023 395.121185 145.000031
v 176.677521 395.121277 145.000031
v -202.377808 395.121246 145.000031
v 58.711102 395.121246 145.000031
v -202.859604 -42.280563 123.337784
v -202.859604 -42.280506 145.000000
v -202.859604 -42.280499 -0.000012
v -202.859604 -2.332928 -0.000004
v -202.859604 -2.332978 123.337791
v -202.859604 -2.332940 145.000000
v -202.859604 -230.278351 36.227745
v -202.859604 73.010086 36.227795
v 176.196304 -230.278305 36.227745
v 176.196304 73.010086 36.227795
v 176.677994 395.121307 36.227848
v 176.678101 77.054787 36.227795
v -202.377899 395.121307 36.227848
v -202.377808 77.054688 36.227795
v 58.711102 74.662888 36.227795
v 121.944603 73.010086 36.227795
v 58.711102 73.010086 36.227795
v 58.711102 77.054688 36.227795
v 121.944603 77.054688 36.227795
v 121.944603 74.662888 36.227795
v -202.859604 -42.280537 36.227768
v -202.859604 -2.332954 36.227779
v 58.711102 74.662888 108.684090
v 121.944603 74.662888 108.684090
v -202.859604 -230.278412 108.684036
v -202.859604 73.010086 108.684090
v 176.196304 -230.278320 108.684036
v 176.196304 73.010086 108.684090
v 176.677994 395.121277 108.684135
v 176.678101 77.054787 108.684090
v -202.377899 395.121277 108.684135
v -202.377808 77.054688 108.684090
v 121.944603 73.010086 108.684090
v 58.711102 73.010086 108.684090
v 58.711102 77.054688 108.684090
v 121.944603 77.054688 108.684090
v -202.859604 -42.280563 108.684059
v -202.859604 -2.332974 108.684067
v -206.337524 -42.269188 36.215801
v -206.337524 -2.321600 36.215813
v -206.337524 -42.269215 108.672089
v -206.337524 -2.321620 108.672096
vt 0.500000 0.490719
vt 0.500000 1.000000
vt -0.000000 1.000000
vt 0.000000 0.490719
vt 0.500000 0.000000
vt 1.000000 0.000000
vt 1.000000 1.000000
vt 0.500000 1.000000
vt 0.500000 0.000000
vt 1.000000 -0.000000
vt 1.000000 1.000000
vt 0.000000 0.000000
vt 1.000000 0.000000
vt 1.000000 1.000000
vt -0.000000 1.000000
vt 0.000000 0.000000
vt 1.000000 0.000000
vt 1.000000 1.000000
vt 0.000000 1.000000
vt 0.000000 0.079680
vt -0.000000 -0.000000
vt 0.999999 -0.000000
vt 1.000000 0.079680
vt 1.000000 0.490719
vt 1.000000 1.000000
vt 0.000000 1.000000
vt 0.000000 0.490719
vt 1.000000 0.000000
vt 0.999999 1.000000
vt -0.000001 1.000000
vt 0.000000 0.000000
vt 1.000000 -0.000000
vt 1.000000 1.000000
vt 0.000000 1.000000
vt 0.000000 -0.000000
vt 0.079680 0.000000
vt 0.079680 1.000000
vt -0.000000 1.000000
vt 0.000000 0.000000
vt 1.000000 -0.000000
vt 1.000000 1.000000
vt 0.000000 1.000000
vt 0.000004 1.000000
vt 0.000000 0.000000
vt 1.000000 0.000000
vt 1.000004 1.000000
vt 0.000000 -0.000000
vt 0.000000 0.079680
vt 0.000000 0.000000
vt 1.000000 0.000000
vt 0.999996 1.000000
vt 0.000000 0.500000
vt 0.000000 -0.000000
vt 1.000000 -0.000000
vt 1.000000 0.500000
vt 0.500000 1.000000
vt 0.500000 0.000000
vt 1.000000 0.000000
vt 1.000000 1.000000
vt 0.500000 1.000000
vt 0.500000 0.000000
vt 1.000000 0.000000
vt 1.000000 1.000000
vt 0.500000 1.000000
vt 0.500000 0.000000
vt 1.000000 0.000000
vt 1.000000 1.000000
vt 0.000000 0.000000
vt 1.000000 0.000000
vt 1.000000 1.000000
vt 0.000000 1.000000
vt 0.000000 0.000000
vt 1.000000 0.000000
vt 1.000000 1.000000
vt 0.000000 1.000000
vt 0.079680 1.000000
vt 0.000000 1.000000
vt -0.000000 0.000000
vt 0.079680 0.000000
vt 1.000000 -0.000000
vt 1.000000 1.000000
vt 0.000000 1.000000
vt 0.000000 -0.000000
vt 1.000000 -0.000000
vt 1.000000 1.000000
vt 0.000000 1.000000
vt -0.000000 0.000000
vt 1.000000 0.000000
vt 1.000000 1.000000
vt 0.000000 0.000000
vt 0.000000 0.920319
vt 0.999996 0.920320
vt 0.000000 0.999999
vt 1.000000 -0.000000
vt 1.000000 1.000000
vt 0.000000 1.000000
vt 0.000000 -0.000000
vt 0.999996 0.000000
vt 1.000000 1.000000
vt 0.000000 1.000000
vt 0.000000 0.000000
vt 0.999999 0.079680
vt 1.000000 0.000000
vt 0.000000 0.000000
vt 0.000000 0.079680
vt 0.000000 -0.000000
vt 1.000000 -0.000000
vt 1.000000 1.000000
vt 0.000000 0.500000
vt 0.000000 -0.000000
vt 1.000000 0.500000
vt 1.000000 0.000000
vt 1.000000 1.000000
vt 0.000000 1.000000
vt 1.000000 0.000000
vt 1.000000 1.000000
vt 0.000000 1.000000
vt 0.000000 0.000000
vt 1.000000 1.000000
vt 0.000000 1.000000
vt 1.000000 0.000000
vt 1.000000 1.000000
vt 0.000000 1.000000
vt 1.000000 0.000000
vt 1.000000 1.000000
vt 0.000000 1.000000
vt 0.000000 0.000000
vt 1.000000 1.000000
vt 0.000000 1.000000
vt 1.000000 0.330644
vt 0.000000 0.330644
vt 0.500000 0.330644
vt 0.000000 0.330644
vt 0.500000 0.000000
vt -0.000000 -0.000000
vt 1.000000 -0.000000
vt 0.920320 0.000000
vt 0.920320 0.330644
vt 0.000001 0.920320
vt 1.000000 0.920320
vt 1.000000 0.500000
vt 0.000000 0.500000
vt 0.000004 0.000000
vt 0.999998 0.500000
vt 0.000002 0.499999
vt 1.000000 1.000000
vt 0.500000 1.000000
vt 0.500000 0.000000
vt 1.000000 -0.000000
vt 0.079680 1.000000
vt 0.079680 0.000000
vt 0.079680 1.000000
vt 0.079680 0.000000
vt 0.079680 1.000000
vt 0.079680 0.000000
vt 0.000000 0.920320
vt 1.000000 0.920320
vt 1.000000 1.000000
vt 1.000000 0.500000
vt 0.000000 0.500000
vt 0.000000 1.000000
vt 1.000000 0.000000
vt 1.000000 1.000000
vt 0.500000 1.000000
vt -0.000000 1.000000
vt 0.000000 0.500000
vt 0.079680 1.000000
vt 0.079680 0.000000
vt 0.079680 1.000000
vt 0.079680 0.000000
vt 0.920320 0.490719
vt 0.920320 1.000000
vt 1.000000 0.490719
vt 1.000000 1.000000
vt 0.000000 1.000000
vt 1.000000 0.330644
vt 0.920320 0.330644
vt 0.500000 0.330644
vt 0.500000 0.490719
vt 0.920320 0.490719
vn 0.9045 0.3022 0.3009
vn 1.0000 -0.0000 0.0000
vn -0.0000 1.0000 0.0000
vn -1.0000 0.0000 0.0000
vn 0.0000 -1.0000 0.0000
vn 0.0000 -0.0000 1.0000
vn 0.0000 0.0000 -1.0000
vn 0.9038 -0.3026 0.3026
vn 0.9046 -0.3008 -0.3021
vn 0.9053 0.3004 -0.3005
vn 0.0001 -0.7086 -0.7056
vn -0.0047 -0.7071 0.7071
vn -0.0001 0.7056 0.7086
vn 0.0047 0.7071 -0.7071
usemtl Default_OBJ
s 1
f 73/1/1 59/2/2 3/3/2 55/4/2
f 59/2/3 61/5/3 6/6/3 3/7/3
f 61/8/4 62/9/4 8/10/4 6/11/4
f 9/12/5 10/13/5 11/14/5 12/15/5
f 13/16/5 1/17/5 10/18/5 9/19/5
f 80/20/5 7/21/5 11/22/5 85/23/5
f 54/24/2 15/25/2 2/26/2 53/27/2
f 15/28/3 16/29/3 5/30/3 2/31/3
f 16/32/4 17/33/4 7/34/4 5/35/4
f 78/36/5 86/37/5 10/38/5 1/39/5
f 17/40/5 12/41/5 11/42/5 7/21/5
f 18/43/6 14/44/6 19/45/6 20/46/6
f 85/23/4 11/22/4 21/47/4 76/48/4
f 11/42/7 10/49/7 22/50/7 21/51/7
f 69/52/2 18/53/2 20/54/2 67/55/2
f 64/56/4 63/57/4 25/58/4 26/59/4
f 63/60/5 65/61/5 28/62/5 25/63/5
f 65/64/2 66/65/2 30/66/2 28/67/2
f 31/68/3 32/69/3 33/70/3 34/71/3
f 35/72/3 23/73/3 32/74/3 31/75/3
f 84/76/3 29/77/3 33/78/3 87/79/3
f 35/80/4 37/81/4 24/82/4 23/83/4
f 37/84/5 38/85/5 27/86/5 24/87/5
f 38/88/2 39/89/2 29/77/2 27/90/2
f 82/91/3 88/92/3 32/74/3 23/93/3
f 39/94/3 34/95/3 33/96/3 29/97/3
f 40/98/6 36/99/6 20/100/6 19/101/6
f 87/102/2 33/103/2 22/104/2 75/105/2
f 33/96/7 32/106/7 21/107/7 22/108/7
f 71/109/4 40/110/4 19/45/4 72/111/4
f 13/16/7 9/112/7 41/113/7 42/114/7
f 9/12/7 12/115/7 43/116/7 44/117/7
f 12/118/7 17/40/7 45/119/7 46/120/7
f 31/68/7 34/121/7 47/122/7 48/123/7
f 35/72/7 31/124/7 49/125/7 50/126/7
f 34/127/7 39/94/7 51/128/7 52/129/7
f 58/130/2 54/24/2 53/27/2 57/131/2
f 74/132/8 73/1/1 55/4/2 56/133/2
f 60/134/2 74/132/8 56/133/2 4/135/2
f 13/136/2 58/130/2 57/131/2 1/39/2
f 78/137/2 90/138/9 74/132/8 60/134/2
f 88/139/4 71/109/4 72/111/4 76/140/4
f 36/99/2 70/141/2 67/142/2 20/100/2
f 26/143/3 40/98/3 71/144/3 64/145/3
f 30/146/3 66/147/3 70/148/3 36/149/3
f 83/150/2 84/151/2 66/65/2 65/64/2
f 81/152/5 83/153/5 65/61/5 63/60/5
f 82/154/4 81/155/4 63/57/4 64/56/4
f 86/156/2 69/52/2 67/55/2 75/157/2
f 14/158/4 68/159/4 72/160/4 19/161/4
f 4/162/5 18/163/5 69/164/5 60/134/5
f 8/165/5 62/166/5 68/159/5 14/158/5
f 79/167/4 80/168/4 62/9/4 61/8/4
f 77/169/3 79/170/3 61/5/3 59/2/3
f 89/171/10 77/172/2 59/2/2 73/1/1
f 53/173/2 2/174/2 77/172/2 89/171/10
f 2/26/3 5/35/3 79/170/3 77/169/3
f 5/30/4 7/21/4 80/168/4 79/167/4
f 10/38/2 86/156/2 75/157/2 22/108/2
f 23/93/4 24/87/4 81/155/4 82/154/4
f 24/82/5 27/90/5 83/153/5 81/152/5
f 27/86/2 29/97/2 84/151/2 83/150/2
f 32/175/4 88/139/4 76/140/4 21/51/4
f 57/176/2 53/173/2 89/171/10 90/138/9
f 1/17/2 57/176/2 90/138/9 78/137/2
f 70/141/2 87/102/2 75/105/2 67/142/2
f 64/145/3 71/144/3 88/92/3 82/91/3
f 66/147/3 84/76/3 87/79/3 70/148/3
f 68/159/4 85/23/4 76/48/4 72/160/4
f 60/134/5 69/164/5 86/37/5 78/36/5
f 62/166/5 80/20/5 85/23/5 68/159/5
f 74/132/8 90/138/9 94/177/11 92/178/12
f 89/171/10 73/1/1 91/179/13 93/180/14
f 90/138/9 89/171/10 93/180/14 94/177/11
f 73/1/1 74/132/8 92/178/12 91/179/13
